<svg width="215" height="210" viewBox="0 0 215 210" fill="none" xmlns="http://www.w3.org/2000/svg">
<ellipse cx="107" cy="104" rx="58" ry="60" fill="white"/>
<path d="M107.885 60.5938C96.0584 60.6053 84.7193 65.1988 76.3557 73.3663C67.992 81.5338 63.2869 92.6083 63.2727 104.16C63.2638 112.385 65.6288 120.4 70.09 127.339L71.1471 128.984L66.641 145.058L83.5275 140.735L85.149 141.68C92.0246 145.655 99.8686 147.749 107.858 147.744H107.867C119.69 147.728 131.024 143.134 139.385 134.969C147.746 126.804 152.452 115.734 152.471 104.186C152.491 98.4622 151.349 92.791 149.11 87.5012C146.871 82.2113 143.58 77.4078 139.427 73.3688C135.296 69.3074 130.381 66.087 124.967 63.8942C119.553 61.7013 113.747 60.5795 107.885 60.5938ZM134.115 122.876C132.995 125.939 127.638 128.721 125.067 129.098C122.249 129.572 119.356 129.395 116.62 128.581C114.024 127.796 111.473 126.876 108.978 125.825C95.5227 120.155 86.7435 106.934 86.0627 106.05C85.3998 105.175 80.5981 98.945 80.5981 92.505C80.5981 86.0563 84.0561 82.8888 85.2833 81.5763C85.734 81.0789 86.2848 80.6777 86.9013 80.3977C87.5179 80.1177 88.1869 79.9648 88.8667 79.9488C89.7625 79.9488 90.6494 79.9575 91.4377 79.9925C92.2619 80.0275 93.3638 79.6863 94.4477 82.2413C95.5675 84.8663 98.255 91.3063 98.5865 91.9625C98.9179 92.61 99.1419 93.38 98.7029 94.255C98.255 95.1388 98.04 95.6725 97.3592 96.4425C96.6963 97.2125 95.9527 98.1488 95.3525 98.7438C94.6806 99.3913 93.9819 100.1 94.7613 101.413C95.5496 102.716 98.2371 107.013 102.215 110.486C107.339 114.949 111.666 116.323 113 116.988C114.344 117.635 115.124 117.539 115.912 116.655C116.691 115.771 119.262 112.831 120.158 111.528C121.054 110.215 121.941 110.434 123.177 110.863C124.404 111.309 130.998 114.468 132.333 115.124C133.658 115.771 134.563 116.104 134.904 116.655C135.226 117.198 135.226 119.814 134.115 122.876Z" fill="#00BB2D"/>
</svg>
